<svg id="Layer_1" data-name="Layer 1" xmlns="http://www.w3.org/2000/svg" xmlns:xlink="http://www.w3.org/1999/xlink" viewBox="0 0 360 360"><defs><style>.cls-1{mask:url(#mask);}.cls-2{fill:#4a4c4d;}.cls-3{mask:url(#mask-2);}.cls-4{mask:url(#mask-3);}.cls-5{filter:url(#luminosity-noclip-3);}.cls-6{filter:url(#luminosity-noclip-2);}.cls-7{filter:url(#luminosity-noclip);}</style><filter id="luminosity-noclip" x="25.09" y="-5788.48" width="308.59" height="32766" filterUnits="userSpaceOnUse" color-interpolation-filters="sRGB"><feFlood flood-color="#fff" result="bg"/><feBlend in="SourceGraphic" in2="bg"/></filter><mask id="mask" x="25.09" y="-5788.48" width="308.59" height="32766" maskUnits="userSpaceOnUse"><g class="cls-7"/></mask><filter id="luminosity-noclip-2" x="123.13" y="-5788.48" width="116.15" height="32766" filterUnits="userSpaceOnUse" color-interpolation-filters="sRGB"><feFlood flood-color="#fff" result="bg"/><feBlend in="SourceGraphic" in2="bg"/></filter><mask id="mask-2" x="123.13" y="-5788.48" width="116.15" height="32766" maskUnits="userSpaceOnUse"><g class="cls-6"/></mask><filter id="luminosity-noclip-3" x="24.47" y="-5788.48" width="311.22" height="32766" filterUnits="userSpaceOnUse" color-interpolation-filters="sRGB"><feFlood flood-color="#fff" result="bg"/><feBlend in="SourceGraphic" in2="bg"/></filter><mask id="mask-3" x="24.47" y="-5788.48" width="311.22" height="32766" maskUnits="userSpaceOnUse"><g class="cls-5"/></mask></defs><g class="cls-1"><path class="cls-2" d="M97,282.87a119.86,119.86,0,0,1-6.8,11.3c-3.08,4.28-9.63,6.07-19.88,5.71a127.87,127.87,0,0,0-18,.95c1.86-.36,5.07-3.21,8.4-6.9s7.66-9.81,13.58-11.36,8.15,3.21,8.15,3.21c2.47-9.75-1-18.44-9.5-20.34-3.29-.74-7.35,1-11.52,3.64L38.74,253.72s12.45-.27,21.5-.6c9.93-.35,23.08-.64,34.53,12.73,0,0-1.29-11.63-.46-17.37,1.15-7.94.53-11.63,1.15-12.94,0,0-34.47,7.52-69.81-8.11,0,0-.62,12.73-.49,17.6s.48,11.07,0,13,1.86-2.5,6.18-.71c3.32,1.37,17.67,11.41,24.18,16-4.65,3.6-9.06,7.5-12.32,9.56-7.54,4.76-15.38-2-15.38-2A91.46,91.46,0,0,1,29,293.4c-.07,6.12-.87,8.38-.74,11.6s1.23,3.45,4.32,3.09,58.28,0,62.36,0,3-3.57,3-3.57Z"/><path class="cls-2" d="M83.32,179.36c-21.61-9.63-37-3.92-40.75,4.88,0,0-17.48,25.46,14.82,39.86,27.86,12.41,41.49-.31,44.33-7.35S104.93,189,83.32,179.36Zm-1,28.5c-8.68,21.32-21,13.94-21,13.94s-12.78-5-1.82-27.37c10.63-21.66,23.07-11.35,23.07-11.35S90.36,188,82.28,207.86Z"/><path class="cls-2" d="M84.14,128.92s-22.31,23,3.87,44.26,44.58,2.61,44.58,2.61,18.8-19.65-3.46-40.8C101.84,109.05,84.14,128.92,84.14,128.92Zm34.12,34.57c-18,19.2-28.77,6.71-28.77,6.71s-8.89-7.37,8.83-27.79c16.05-18.5,26.23-5.06,26.23-5.06S133.79,146.9,118.26,163.49Z"/><path class="cls-2" d="M190.75,104.17c-7.29-1.66-11-.23-11-.23a73.83,73.83,0,0,1,9.63,13.44c3.71,7,4.69,26.11,4.69,26.11-.24-2.85-3.45-10.88-14.94-17.42S164.32,114.64,162.6,111s1.11-7.74,1.11-7.74a70,70,0,0,0-26.06,5.48c11.61,25.34,9.63,50.8,8.65,55.67s0,4.29,0,4.29c2.59-1.43,21.46-4.41,21.46-4.41-5.56-.59-9.49-7.95-10.54-10.84-2.34-6.48-4.07-27-4.07-27,1,3.81,4.91,11.42,18.44,20.23,9.32,6.07,7.58,17.31,7.58,17.31,1.61-.12,14.67,2.26,16.64,2.26s2.47-2.26,2.47-2.26c1.48-6,4.45-58.89,4.45-58.89S198,105.84,190.75,104.17Z"/><path class="cls-2" d="M277.58,198.11l-.1.08A.17.17,0,0,0,277.58,198.11Z"/><path class="cls-2" d="M268.59,191.69l19-17.61c.58.56,1.2,1.15,1.87,1.77,10.65,10,24.91-4.26,24.91-4.26s-2.92-2.08-14.54-12.9-27.47,2.43-27.47,2.43c5.59,2.36,6.51,3.76,10.25,7.84l-19.91,17.48c-10.34-7.13-19.47,2.54-19.47,2.54a106.85,106.85,0,0,0,12.48,13.58c7.4,6.48,20.54-3.44,21.73-4.37C277.13,198.33,275.5,198.14,268.59,191.69Z"/><path class="cls-2" d="M285.21,251.1c17.54-2.85,16.27-13.92,18.28-23.55,1.84-8.86,3.95-25.7,12.29-22.81,6.2,2.15,1.54,14.26-.68,19.12s-13.21,17.25-4.32,19.63,19.88-1.91,20.74-2.5-6.73-3.18-4.23-14.14,10-29.59-9.29-32.58c-14.39-2.22-23.15,5.08-25.38,16.74-1.58,8.31-1.17,34.65-9.81,32.91-8.29-1.67-6.24-13.7-5.23-17.76,2.92-11.72,4.54-13.37,2.56-23.24,0,0-16.41,4.88-15.92,14.4s2.1,15.58,3.09,18.2S272.65,253.15,285.21,251.1Z"/><path class="cls-2" d="M332.63,289.17c-.8-6.12-.55-34.44-.43-35.39s.06-2-1.48-1.25-17.91,7.38-61.43,3.57c0,0,2.59,6.07,1.66,20.88S270,300.6,270,300.6s-.75,4.63,4.42,4.51c4.48-.1,20.44.12,20.44.12s9.85-.54,8-3.45c-2.84-4.4-12-4.46-16.59-10s-6.44-9.46-4-14.81,5.19-7.68,10.37-7,8.52,2.85,7.78,5.17-6.29,5.36-10.18,0c0,0-6.61,12.91,6.73,14.28S306,273.65,306,273.65s11.24-.48,16.86,7.31,5.18,11.31,4.81,12.14-2.4,2.85-5.8-.36-10-5.29-12-.59-2.22,10.35-.62,12.19,7.85,1.49,9.27,1.49,15.12.24,15.12.24S333.44,295.3,332.63,289.17Z"/><path class="cls-2" d="M236.83,163.66c-13.58-6.07-15-27.71-15-27.71,4.57,15.47,23,20.93,23,20.93s15.68,5.59,23.27-10.71-12.53-25.46-12.53-25.46l-36.8-14.51s-13.07,53.29-14.06,56.5c-.4,1.31-.66,2.28-.83,3a1.75,1.75,0,0,0,1,2l14.18,5.82c-7.54-12.13-.58-34.64-.58-34.64s.2,9.55,1.74,22.07c2.34,18.92,20.12,26.06,20.12,26.06l12.78-20.11S250.42,169.73,236.83,163.66Zm-11.07-46.28s3,9.88,18.58,14.51c10.3,3.06,11.16,6.75,10.25,8.69-1.79,3.81-6.61,4.16-14.3.42C232.88,137.39,224.77,127.85,225.76,117.38Z"/></g><g class="cls-3"><path class="cls-2" d="M179.56,187C111.7,188.29,124,265.85,124,265.85s9.76-62.81,56-61.15,57,58.06,57,58.06S238.94,185.83,179.56,187Z"/><path class="cls-2" d="M171.65,309.25a27.38,27.38,0,0,0,18.56-1.14c9.57-4.27,22.68-22.38,35.34-22.53s13.74,1.22,13.74,1.22-7.7-14.18-19.19-10.64-18.7,12.07-20,12.81c0,0,7.23-18.89,14-23.3s17.07,2.69,19.87,2.83c0,0-6.32-11.19-19.4-10.16-12.06.94-15.43,5.67-19.18,11.19A20.56,20.56,0,0,0,192,280.72s7.21-17.45,6.62-27.46-2.35-17.23-.29-25.63l2.06-8.39s-10.6,12.52-13.25,25.33-4.42,16.71-4.42,16.71,3.24-15.39-1.92-25.25-12.07-18-12.81-22.39c0,0-4.42,14.14-2.06,24.15s5.15,9.35,5.74,18.63.59,15.47.59,15.47-2.94-20-9.86-27.25-12.75-4.16-17.12,1c-5.53,6.58-7.33,10.88-7.69,13.36,0,0,7.59-14,15.61-8,6,4.5,3.73,12.17,5.2,17.62s4.44,11.81,10.62,16.08c0,0-6.77-5.16-13.55-11.2s-11.34-10.3-19-6.62S123.62,279,123.62,279s13.13-9.21,22.41-2.43,4,8.1,17.82,16.34c0,0-15.82-12.63-25.18-8.24a19,19,0,0,0-9.28,9.13s7.8-5.16,13.55-3.54,9.72,9.69,15.83,14A29.94,29.94,0,0,0,171.65,309.25Z"/></g><g class="cls-4"><path class="cls-2" d="M74.22,47.27c-.11-13.76-9.5-18.34-18.63-19.87s-31.12,0-31.12,0V90.33H38.05s-6.67-5.67-6.79-26.75c0,0,7.55,25.69,26.45,26.62,10.93.54,15.12,0,15.12,0V69.82S53.18,90.44,31.38,57.71c0,0,10.39,9.94,23.46,9.94C68.55,67.65,74.33,61,74.22,47.27ZM31.38,35.81C35.61,45,49,46.91,56.51,44.27c4.37-1.54,10.17.83,10.17,3.89s-4.43,7.08-14.43,5.93C35.81,52.19,31.38,35.81,31.38,35.81Z"/><path class="cls-2" d="M83.74,38.86C77,49.19,80.53,90.33,80.53,90.33h7.9s-4-12.17,4.2-21.15c6-6.64,24.45-14,24.45-14,0,15.35-17.21,10.92-21.86,23-4.81,12.51,6.57,12.28,6.57,12.28H123l-.4-63.72C105.84,24.17,91.7,26.72,83.74,38.86Zm20.42,14.27c-9,4.49-14.62,1-14.62-2.55,0-4.58,5-7.16,14.36-8.69a18.34,18.34,0,0,0,13-9.14S113.74,48.35,104.16,53.13Z"/><path class="cls-2" d="M177.64,51.6a115.35,115.35,0,0,1,6.11-24.88H165.48s3.83,17.18,3.64,32.63a225.54,225.54,0,0,1-16.48-19.47c-6.42-8.91-3.71-13.16-3.71-13.16H131.15s1.08,25.9-.65,41.44-.33,22.09,4.6,22.35,15.32,0,15.32,0a27.72,27.72,0,0,1-10.06-19c-1.06-12.49-1.42-20.13-1.42-20.13s19.87,15.54,20.61,39l24.2-.25S174.49,75.3,177.64,51.6Z"/><path class="cls-2" d="M216.6,26.72c-8.4-2.38-32.85-5.44-32.85,29s18,37.71,26.68,37.71,18-3.31,18-29a20.92,20.92,0,0,1-19.51,8.16c-13.08-1.53-18-12.23-17.28-20.13S195.11,31.73,206.1,32s5.38,12.59,13,14.76,8.34-2.27,8.34-4.05-2-12.82,1-17.88C228.45,24.81,225,29.1,216.6,26.72Z"/><path class="cls-2" d="M281.18,55c.74-13.76,8.76-30.23,8.76-30.23s-16.29,2.27-18.76.93c0,0,8.19,12.66-.2,19.33-8.69,6.92-24.87-.86-28.33,7.81,0,0-1.85-7.65,6.92-14.65a30.17,30.17,0,0,0,8.76-12.49s-13.21,3.15-23.09-.12L234.63,90h11.6s-2-15.07,4.57-20.55c7.47-6.25,15.75-1.4,24.82-10.09V60c-.18,2.74-4.44,5.92-4.44,5.92-13.34,12.68-9,24.27-9,24.27l25.56,0S279.73,81.87,281.18,55Z"/><path class="cls-2" d="M335.63,57.07c-1.39-35.59-22.72-33.68-22.72-33.68S288,20.82,287.48,57.07c-.6,38.62,25.43,35.05,25.43,35.05S337.08,94.14,335.63,57.07Zm-24,12.63c-21.65,0-20.66-12-20.66-12S290.44,45,312.42,45.5C333,46,332.17,57.7,332.17,57.7S332.67,69.7,311.59,69.7Z"/></g><path class="cls-2" d="M30.8,331.12c0,2,1.07,2.89,2.55,2.89a2.51,2.51,0,0,0,1.6-.53v-1.41H32.84v-1.6H37v4a6.33,6.33,0,0,1-3.93,1.33c-2.89,0-4.63-1.83-4.63-4.73s1.77-4.94,4.66-4.94a6.07,6.07,0,0,1,3.58,1.14L36,329.23a3.52,3.52,0,0,0-2.6-1.14C31.8,328.09,30.8,329.31,30.8,331.12Z"/><path class="cls-2" d="M41.64,326.32h2.18v7.48h3.59v1.91H41.64Z"/><path class="cls-2" d="M54.05,326.32h2.29l3.22,9.39H56.87l-.5-1.72H53.48L53,335.71H51Zm-.29,6.1h2.35l-1.22-3.83Z"/><path class="cls-2" d="M63.68,326.32H67l2,6.1,1.78-6.1H74v9.39H71.76v-7l-2,7h-2l-2.28-7v7H63.68Z"/><path class="cls-2" d="M78.93,326.32h4.21a2.91,2.91,0,0,1,3,3.1,2.8,2.8,0,0,1-3,3.07H81.23v3.22h-2.3Zm2.3,4.54h1.48c.76,0,1.24-.46,1.24-1.37a1.24,1.24,0,0,0-1.26-1.34H81.23Z"/><path class="cls-2" d="M92.67,326.32v9.39H90.49v-9.39Z"/><path class="cls-2" d="M100.22,326.32l3.44,5.68v-5.68h1.79v9.39h-2.28l-3.81-6.36v6.36H97.57v-9.39Z"/><path class="cls-2" d="M112.22,331.12c0,2,1.07,2.89,2.55,2.89a2.51,2.51,0,0,0,1.6-.53v-1.41h-2.11v-1.6h4.2v4a6.33,6.33,0,0,1-3.93,1.33c-2.89,0-4.63-1.83-4.63-4.73s1.77-4.94,4.66-4.94a6.07,6.07,0,0,1,3.58,1.14l-.76,1.91a3.52,3.52,0,0,0-2.6-1.14C113.22,328.09,112.22,329.31,112.22,331.12Z"/><path class="cls-2" d="M131,326.32h2.3l3.22,9.39h-2.7L133.3,334h-2.89l-.47,1.72h-2Zm-.29,6.1H133l-1.21-3.83Z"/><path class="cls-2" d="M143.25,326.32l3.44,5.68v-5.68h1.8v9.39H146.2l-3.81-6.36v6.36h-1.78v-9.39Z"/><path class="cls-2" d="M153.39,326.32h3.91c2.63,0,4.09,2.1,4.09,4.74,0,2.81-1.46,4.65-4.09,4.65h-3.91Zm2.2,7.56H157c1.19,0,2-.76,2-2.8s-.85-2.93-2-2.93h-1.43Z"/><path class="cls-2" d="M171.74,326.32h6.14v1.91h-3.94v1.94h2.64v1.56h-2.64v2.07h4v1.91h-6.18Z"/><path class="cls-2" d="M187,335.71h-2.12l-3.23-9.39h2.58l1.94,6.22,1.87-6.22h2Z"/><path class="cls-2" d="M194.24,326.32h6.13v1.91h-3.94v1.94h2.64v1.56h-2.64v2.07h4v1.91h-6.18Z"/><path class="cls-2" d="M207.55,326.32,211,332v-5.68h1.79v9.39H210.5l-3.81-6.36v6.36H204.9v-9.39Z"/><path class="cls-2" d="M224,328.23h-2.37v7.48h-2.2v-7.48h-2.33v-1.91H224Z"/><path class="cls-2" d="M232.57,333.21c0-.58-.41-.86-1.29-1.11l-1-.29a2.78,2.78,0,0,1-2.35-2.71c0-1.85,1.38-2.92,3.45-2.92a6.46,6.46,0,0,1,3.34.92l-.5,1.72a3.93,3.93,0,0,0-2.55-1.07c-.8,0-1.28.37-1.28,1,0,.47.28.71,1.26,1l1.06.32c1.67.51,2.41,1.43,2.41,2.75,0,2-1.55,3-3.6,3a6.08,6.08,0,0,1-3.72-1.16l.56-1.73a4.4,4.4,0,0,0,2.87,1.33C232,334.29,232.57,333.93,232.57,333.21Z"/><path class="cls-2" d="M245.38,326.32h4.2a2.92,2.92,0,0,1,3,3.1,2.81,2.81,0,0,1-3,3.07h-1.91v3.22h-2.29Zm2.29,4.54h1.48c.76,0,1.25-.46,1.25-1.37a1.25,1.25,0,0,0-1.26-1.34h-1.47Z"/><path class="cls-2" d="M262.61,331.38c.56.17,1,.54,1.27,1.55l.52,1.65c.08.26.2.41.45.41v.72h-1.59c-.63,0-1-.22-1.17-1l-.49-1.65c-.2-.66-.41-.94-1.12-.94h-1.36v3.6h-2.19v-9.39h4.58a2.52,2.52,0,0,1,2.68,2.68,2.24,2.24,0,0,1-1.58,2.34Zm-3.49-.88h1.75a1.18,1.18,0,0,0,0-2.35h-1.74Z"/><path class="cls-2" d="M268.47,331.08c0-2.74,1.48-4.9,4.56-4.9s4.49,2.16,4.49,4.9c0,2.89-1.68,4.77-4.49,4.77S268.47,334,268.47,331.08Zm4.52,2.86c1.13,0,2.2-.69,2.2-2.89s-1.07-3-2.2-3-2.2.69-2.2,3S271.93,333.94,273,333.94Z"/><path class="cls-2" d="M282,326.32h4.21a2.91,2.91,0,0,1,3,3.1,2.8,2.8,0,0,1-3,3.07h-1.91v3.22H282Zm2.3,4.54h1.48c.76,0,1.24-.46,1.24-1.37a1.24,1.24,0,0,0-1.26-1.34h-1.46Z"/><path class="cls-2" d="M293.54,326.32h6.14v1.91h-3.94v1.94h2.64v1.56h-2.64v2.07h4v1.91h-6.18Z"/><path class="cls-2" d="M309.89,331.38c.55.17,1,.54,1.27,1.55l.51,1.65c.08.26.21.41.46.41v.72h-1.59c-.64,0-1-.22-1.18-1l-.48-1.65c-.21-.66-.42-.94-1.12-.94h-1.37v3.6h-2.18v-9.39h4.57a2.52,2.52,0,0,1,2.68,2.68,2.25,2.25,0,0,1-1.57,2.34Zm-3.5-.88h1.75a1.18,1.18,0,0,0,0-2.35h-1.74Z"/><path class="cls-2" d="M322.37,328.23H320v7.48h-2.2v-7.48h-2.32v-1.91h6.9Z"/><path class="cls-2" d="M331.29,331.77v3.94h-2.18v-3.9l-3.2-5.49h2.62l1.9,3.43,1.87-3.43h2.18Z"/><path class="cls-2" d="M316.81,139.89a37.42,37.42,0,0,0,4.3,4.24l-.8-6.22c1.78,1.09,3.15,2.35,5.19,2.64-.57-1.51-1.37-2.34-1.93-3.86,1.78,0,4.31-.4,6.1-.41-1.32-.95-4.31-2.13-5.14-3.57l5.89-1.18-5.24-2.87a6.71,6.71,0,0,0,4-4,12.58,12.58,0,0,1-4.24,0c1.68-1.87,3.47-4,3.54-6.59l-6,3.08a28.81,28.81,0,0,1,.6-6.36l-4.39,4.68a18.62,18.62,0,0,0-1.36-5.41,7.77,7.77,0,0,1-1.74,2.59,2.44,2.44,0,0,1-2.83.4c-1.21-.78-1.68-2.94-3.08-2.81l-.68,3.81a1,1,0,0,1-.35.69c-.26.14-.57,0-.82-.19l-4.42-2.8,1.42,6.22a31,31,0,0,1-5.66-.7,15.6,15.6,0,0,1,3.75,3.46,14.65,14.65,0,0,0-4.84,2.25,10.15,10.15,0,0,1,3.71,1.33,13.15,13.15,0,0,0-5.27,2.22,16.29,16.29,0,0,1,4.73,1.15,7.3,7.3,0,0,0-3.27,3.77l4.57-1a17.83,17.83,0,0,0-.86,5.58,6.23,6.23,0,0,1,3.69-1.45l-.08,5.47a20.57,20.57,0,0,1,4-4.48l1.9,5.76L313.1,140a32.79,32.79,0,0,0,2.51,5.91,8.84,8.84,0,0,0,.49-4.3"/><path class="cls-2" d="M61.81,137c-2.67-2.29-5.74-4.74-9.25-4.43s-6.24,3.18-9.67,3.34c-3.65.17-6.84-2.77-10.49-2.83s-6.49,2.56-8.94,5.11A17.91,17.91,0,0,1,37.24,137c3.33,1.1,6.74,3.22,10.08,2.14a17,17,0,0,0,2.4-1.14,15.3,15.3,0,0,1,12.68-.33"/><path class="cls-2" d="M61.64,131.54a14.8,14.8,0,0,0-12.27-3.32c-3.47.65-6.79,2.57-10.3,2.14-3.68-.45-7.36-3.44-10.71-1.84-1.28.61-2.68,1.86-3.87,1.09a27.57,27.57,0,0,1,6.05-4.13,9.37,9.37,0,0,1,7.13-.49,19.75,19.75,0,0,0,3.46,1.47c2.79.52,5.23-1.85,8-2.58a9.63,9.63,0,0,1,7.7,1.7,28.34,28.34,0,0,1,5.71,5.76"/><path class="cls-2" d="M55.63,119.53a24.13,24.13,0,0,0-7.73.27c-1.89.47-3.69,1.41-5.64,1.48-2.53.08-4.83-1.29-7.23-2.08s-5.52-.76-6.91,1.35c-.66-.89,0-2.18.81-2.91,2.22-2,5.59-2.19,8.4-1.24a18.27,18.27,0,0,0,4.27,1.35c2,.18,4-.85,6-1.24a10.19,10.19,0,0,1,9,2.71"/></svg>