<svg id="Layer_1" data-name="Layer 1" xmlns="http://www.w3.org/2000/svg" viewBox="0 0 180 180"><defs><style>.cls-1{fill:#8c9a79;}</style></defs><path class="cls-1" d="M16.42,132.39c10.4-9,22.43-18.52,36.12-17.34,13.38,1.14,24.39,12.44,37.81,13.07,14.24.68,26.71-10.81,41-11.05,13.83-.24,25.39,10,35,20a69.85,69.85,0,0,0-53.87-4.5c-13,4.3-26.34,12.58-39.37,8.35-3.3-1.07-6.29-2.89-9.39-4.43a59.67,59.67,0,0,0-49.55-1.29"/><path class="cls-1" d="M17.07,111.23A57.9,57.9,0,0,1,65,98.26c13.56,2.55,26.54,10,40.23,8.36,14.41-1.76,28.8-13.44,41.89-7.17,5,2.38,10.46,7.24,15.09,4.23-7.39-6.06-14.89-12.2-23.61-16.12s-19-5.42-27.86-1.93c-4.58,1.8-8.71,4.85-13.54,5.75-10.9,2-20.44-7.22-31.15-10.07C55.83,78.59,44.73,82,36,88s-15.6,14.28-22.32,22.48"/><path class="cls-1" d="M40.54,64.31c10.1-.73,20.39-1.45,30.2,1,7.4,1.87,14.45,5.54,22.07,5.79,9.87.33,18.88-5,28.26-8.13s21.56-3,27,5.27c2.58-3.47.07-8.48-3.16-11.35-8.67-7.7-21.86-8.55-32.84-4.85-5.55,1.87-10.84,4.79-16.67,5.29C87.37,58,79.77,54,71.86,52.5a39.79,39.79,0,0,0-35,10.61"/></svg>