<svg id="Layer_1" data-name="Layer 1" xmlns="http://www.w3.org/2000/svg" viewBox="0 0 180 180"><defs><style>.cls-1{fill:#e2aa24;}</style></defs><path class="cls-1" d="M156.75,58.8c2.67-6.51,4.18-13.75,2.6-20.73s-6.72-13.61-13.8-15.68L147,24.17c-11.12-9.74-28.27-11.9-41.39-5.87S83.82,37.9,83.17,52.14c-.24,5.28.58,10.79,3.39,15.43,3.15,5.2,8.47,8.83,13.86,11.84,4.86,2.72,10,5.1,15.51,6a34.46,34.46,0,0,0,25.26-6.2C148.32,74.17,153.47,66.8,156.75,58.8Zm-25,18.28a30.49,30.49,0,0,1-20.18-.66,39.57,39.57,0,0,1-16.5-12.1,18.1,18.1,0,0,1-3-4.81,18.65,18.65,0,0,1-.7-8.43c.7-7.74,2.87-15.75,8.6-21l.27-.09c-3.64,7.93-6.59,17-3.38,25.37s12.31,13.93,21.41,15.53,18.33,0,27.25-1.92C141.21,72.13,136.85,75.36,131.73,77.08Z"/><path class="cls-1" d="M71.27,163.64c5.78-2.25,1.2-.2,5.73-3.32,4-2.78,9.37-3.74,12.19-7.74S92,142.2,87.88,139.5a9.2,9.2,0,0,0-8.64-.33,21,21,0,0,0-7,5.6,9.34,9.34,0,0,0-5.89-10.42c3.57,0,7.22,0,10.59-1.15s6.5-3.69,7.37-7.15a26.18,26.18,0,0,0,6.23,6.11,10.37,10.37,0,0,0,8.35,1.51c2.8-.85,5.08-3.61,4.79-6.51-.35-3.6-4.1-5.84-7.61-6.73A25.57,25.57,0,0,0,85.83,120c.22-2.36,2.1-4.47,1.75-6.82-.32-2.14-2.45-3.58-4.55-4.1-3.84-1-8,.28-11.21,2.54a32.32,32.32,0,0,0-7.92,8.71,28.81,28.81,0,0,0-.24-8.7c-.68-2.83-2.39-5.58-5.06-6.74A19,19,0,0,0,75.47,92.13c1.28-3.9,1.12-8.47-1.3-11.78s-7.43-4.78-10.87-2.54c-.25-7.33-7.21-13.74-14.53-13.39a3.74,3.74,0,0,0-2.05.55,3.49,3.49,0,0,0-1.17,2.92c0,3.53,2.4,6.71,5.35,8.64s6.45,2.84,9.87,3.71a18.27,18.27,0,0,0-6.93,20.81c-1.16-2.19-2.82-4.28-5.15-5.15s-5.38-.06-6.38,2.22c-1.91-6.85-8.91-11.31-16-12.35a13.07,13.07,0,0,0-8.06.94c-2.43,1.29-4.2,4.09-3.6,6.78.65,2.92,3.66,4.63,6.48,5.62a36.46,36.46,0,0,0,20.51,1c.42,1.84-.53,3.7-.73,5.58-.41,3.93,2.45,7.4,5.3,10.15,4.5,4.34,10.43,8.48,16.51,7a9.39,9.39,0,0,0-.57,10.3A8,8,0,0,0,51,136c-2.18-4.64-5.5-9-10.15-11.13s-10.78-1.6-14.16,2.25a12.89,12.89,0,0,0-2.86,8.52,7.52,7.52,0,0,0,.82,3.77c1.56,2.65,5.19,3.1,8.26,2.9a41.64,41.64,0,0,0,16.34-4.51,10.95,10.95,0,0,0,8.19,16.12c-2.28.48-3.52,3.3-2.84,5.52a7.14,7.14,0,0,0,5.06,4.4,21,21,0,0,0,6.94.36l2.76-.16Z"/></svg>