<svg id="Layer_1" data-name="Layer 1" xmlns="http://www.w3.org/2000/svg" viewBox="0 0 180 180"><defs><style>.cls-1{fill:#31735a;}</style></defs><path class="cls-1" d="M29.88,76.34C26.44,87.12,25,98.91,28.41,109.89S41,130.81,52.56,133.2l3.35,2c22.53,7,41,10.76,61.22-.62s32.29-34.23,31.47-57.11c-.3-8.5-2.34-17.21-7.44-24.27-5.72-7.92-14.71-13-23.73-17.17-8.16-3.72-16.73-6.86-25.64-7.62C77.32,27.15,62.9,32.54,52.14,41.58S34.09,63.09,29.88,76.34Z"/><path class="cls-1" d="M101.12,134.74a161.71,161.71,0,0,0,19.34,19l-3.6-27.94c8,4.91,14.17,10.58,23.32,11.88-2.55-6.83-6.14-10.54-8.69-17.37,8,0,19.43-1.82,27.44-1.83-5.93-4.31-19.38-9.6-23.1-16.07l26.48-5.3L138.76,84.24a30.23,30.23,0,0,0,18.17-17.78,57,57,0,0,1-19.1-.12c7.58-8.44,15.62-18,15.92-29.63L126.54,50.56a130.9,130.9,0,0,1,2.74-28.64L109.5,43a81.93,81.93,0,0,0-6.12-24.33c-2.08,4.25-4.25,8.63-7.79,11.64s-8.83,4.31-12.77,1.78C77.4,28.59,75.27,18.85,69,19.46l-3,17.12c-.21,1.19-.53,2.55-1.56,3.11s-2.58-.11-3.72-.83L40.79,26.26l6.39,28a136.69,136.69,0,0,1-25.45-3.17A70.53,70.53,0,0,1,38.58,66.62,66.46,66.46,0,0,0,16.83,76.74a46,46,0,0,1,16.67,6A59.3,59.3,0,0,0,9.79,92.71a74.28,74.28,0,0,1,21.28,5.17,33.2,33.2,0,0,0-14.72,17l20.58-4.62a80.66,80.66,0,0,0-3.87,25.1,28,28,0,0,1,16.57-6.49l-.33,24.58a92.72,92.72,0,0,1,17.94-20.13l8.53,25.89,8.66-24a145.39,145.39,0,0,0,11.29,26.56,40.12,40.12,0,0,0,2.21-19.32"/></svg>