<svg id="Layer_1" data-name="Layer 1" xmlns="http://www.w3.org/2000/svg" xmlns:xlink="http://www.w3.org/1999/xlink" viewBox="0 0 180 180"><defs><style>.cls-1{mask:url(#mask);}.cls-2{fill:#8c9a79;}.cls-3{filter:url(#luminosity-noclip);}</style><filter id="luminosity-noclip" x="17.97" y="-6845.39" width="140.23" height="32766" filterUnits="userSpaceOnUse" color-interpolation-filters="sRGB"><feFlood flood-color="#fff" result="bg"/><feBlend in="SourceGraphic" in2="bg"/></filter><mask id="mask" x="17.97" y="-6845.39" width="140.23" height="32766" maskUnits="userSpaceOnUse"><g class="cls-3"/></mask></defs><g class="cls-1"><path class="cls-2" d="M86.09,16C4.17,17.61,19,111.26,19,111.26S30.8,35.42,86.67,37.43s68.8,70.09,68.8,70.09S157.77,14.65,86.09,16Z"/><path class="cls-2" d="M76.54,163.65A33,33,0,0,0,99,162.27c11.55-5.15,27.38-27,42.66-27.2s16.59,1.47,16.59,1.47-9.3-17.11-23.16-12.85-22.58,14.58-24.18,15.47c0,0,8.72-22.8,16.9-28.13s20.6,3.25,24,3.42c0,0-7.63-13.51-23.41-12.27-14.56,1.14-18.63,6.85-23.16,13.51a24.76,24.76,0,0,0-4.09,13.51s8.71-21.06,8-33.15-2.84-20.8-.36-30.94L111.21,55s-12.8,15.11-16,30.58-5.33,20.18-5.33,20.18,3.91-18.58-2.31-30.49S73,53.56,72.1,48.22c0,0-5.33,17.07-2.49,29.16s6.22,11.29,6.93,22.49.72,18.67.72,18.67S73.7,94.36,65.34,85.65s-15.38-5-20.66,1.26C38,94.84,35.83,100,35.4,103c0,0,9.16-16.93,18.84-9.71,7.28,5.42,4.51,14.69,6.28,21.27s5.36,14.25,12.82,19.4c0,0-8.17-6.22-16.35-13.51s-13.69-12.44-22.94-8-15.49,14.67-15.49,14.67,15.85-11.11,27.05-2.93S50.41,134,67.12,144c0,0-19.09-15.25-30.4-10a23,23,0,0,0-11.2,11s9.42-6.23,16.36-4.27S53.61,152.45,61,157.63A36.19,36.19,0,0,0,76.54,163.65Z"/></g></svg>