<svg id="Layer_1" data-name="Layer 1" xmlns="http://www.w3.org/2000/svg" viewBox="0 0 360 360"><defs><style>.cls-1{fill:#c9842b;}</style></defs><path class="cls-1" d="M300.27,98.16c3.14-7.65,4.91-16.14,3.06-24.34s-7.89-16-16.2-18.4l1.65,2.08c-13.06-11.44-33.19-14-48.6-6.89s-25.53,23-26.29,39.72c-.29,6.21.68,12.67,4,18.12,3.7,6.1,9.94,10.37,16.26,13.9,5.72,3.2,11.78,6,18.22,7.07,10.46,1.75,21.28-1.32,29.65-7.27S296.42,107.55,300.27,98.16ZM270.9,119.62a35.79,35.79,0,0,1-23.69-.78,46.41,46.41,0,0,1-19.38-14.2A21.28,21.28,0,0,1,224.29,99c-1.21-3.15-1.12-6.59-.82-9.9.81-9.09,3.37-18.49,10.09-24.68l.32-.11c-4.27,9.31-7.74,20-4,29.78s14.45,16.36,25.14,18.24,21.52,0,32-2.25C282,113.8,276.91,117.6,270.9,119.62Z"/><path class="cls-1" d="M75.67,330.53c5.25-2,1.08-.17,5.21-3,3.66-2.53,8.51-3.4,11.08-7s2.51-9.43-1.19-11.89a8.37,8.37,0,0,0-7.86-.31,19.14,19.14,0,0,0-6.34,5.1,8.49,8.49,0,0,0-5.35-9.48c3.24,0,6.56,0,9.63-1s5.91-3.36,6.7-6.5a23.85,23.85,0,0,0,5.66,5.55,9.42,9.42,0,0,0,7.6,1.37c2.54-.77,4.62-3.28,4.36-5.92-.33-3.27-3.74-5.31-6.92-6.11a23.16,23.16,0,0,0-9.34-.42c.2-2.15,1.91-4.07,1.59-6.2-.3-1.95-2.23-3.26-4.14-3.74a12.83,12.83,0,0,0-10.19,2.32A29.19,29.19,0,0,0,69,291.13a25.93,25.93,0,0,0-.22-7.92,8.73,8.73,0,0,0-4.6-6.13,17.25,17.25,0,0,0,15.35-11.57c1.16-3.55,1-7.7-1.19-10.71s-6.75-4.35-9.88-2.32A13.13,13.13,0,0,0,55.2,240.31a3.42,3.42,0,0,0-1.86.5,3.19,3.19,0,0,0-1.06,2.66c0,3.21,2.18,6.1,4.87,7.86s5.86,2.57,9,3.37a16.62,16.62,0,0,0-6.31,18.92,9.36,9.36,0,0,0-4.68-4.68c-2.11-.78-4.89-.05-5.8,2-1.73-6.23-8.1-10.28-14.5-11.22a11.85,11.85,0,0,0-7.33.85c-2.21,1.17-3.82,3.72-3.28,6.16.59,2.66,3.33,4.22,5.9,5.12a33.15,33.15,0,0,0,18.64.94c.39,1.67-.47,3.36-.65,5.07-.38,3.58,2.22,6.74,4.82,9.24,4.08,3.95,9.48,7.7,15,6.39a8.52,8.52,0,0,0-.52,9.37,7.3,7.3,0,0,0-10.19,2.54c-2-4.22-5-8.16-9.24-10.12s-9.8-1.45-12.87,2a11.68,11.68,0,0,0-2.6,7.74,6.81,6.81,0,0,0,.74,3.43c1.42,2.42,4.72,2.82,7.51,2.64a37.79,37.79,0,0,0,14.86-4.1,10,10,0,0,0,7.45,14.66c-2.07.43-3.2,3-2.58,5a6.5,6.5,0,0,0,4.59,4,19.4,19.4,0,0,0,6.32.33l2.51-.15Z"/><path class="cls-1" d="M184.07,97.3c-.28-34.82-24-46.42-47-50.29s-78.58,0-78.58,0V206.27h34.3s-16.84-14.35-17.15-67.7c0,0,19,65,66.8,67.38,27.6,1.36,38.17,0,38.17,0V154.36S130.94,206.55,75.9,123.73c0,0,26.22,25.15,59.25,25.15C169.76,148.88,184.35,132.12,184.07,97.3ZM75.9,68.29c10.68,23.13,44.57,28.1,63.46,21.41,11-3.9,25.69,2.11,25.69,9.84s-11.19,17.93-36.45,15C87.07,109.74,75.9,68.29,75.9,68.29Z"/><path class="cls-1" d="M188.4,329.15s-19.7-6.56-28.33-16.39c-15-17.13-10.84-25.87-9.95-50.61s-7.64-45.38-6.74-40.9,8.05,12.22,17.29,20.26,24.6,18.49,28.48,32.79S181.1,294,181.1,294c24.45,6,46.21-2.39,51-23,1.83-7.93-2.48-17.73-9.14-27.81l28.53-53.12s-5.67,34.13-4.85,56c.89,24,27.28,50.88-12.81,81.42,0,0,23.48-.5,37.93,1.08,25.67,2.81,48.58-4.7,51.86-3.21,0,0-43.84-71.26-13.9-163.94,0,0-15-3.23-27.26-2.93s-43,1-47.77-.21,6.26,4.49,1.79,14.92c-3.43,8-12.57,40-24.11,55.72-9-11.22-18.8-21.88-24-29.74a52.75,52.75,0,0,1-8.07-36.69,20.72,20.72,0,0,1-18.18,10.18c-15.35-.15-14.4.77-22.45,1.07s-15.41-7.65-14.51-.2-2.44,126.34-3.94,136.06c-3.2,20.85,12.88,21.63,12.88,21.63Z"/></svg>