<svg id="Layer_1" data-name="Layer 1" xmlns="http://www.w3.org/2000/svg" viewBox="0 0 360 360"><defs><style>.cls-1{fill:#231f20;}</style></defs><path class="cls-1" d="M54.91,245.31h4.56L65.87,264H60.51l-1-3.41H53.78L52.84,264H48.78Zm-.58,12.12H59l-2.42-7.61Z"/><path class="cls-1" d="M64,282.08H59.27V297H54.91V282.08H50.29v-3.79H64Z"/><path class="cls-1" d="M54.22,320.94l-5.66-9.67h6l3.16,5.88,3.41-5.88h4.48l-5.58,9,5.58,9.62h-6l-3.11-5.77-3.43,5.77H48.56Z"/><path class="cls-1" d="M308.21,64.24c2.43-5.93,3.8-12.51,2.37-18.86S304.47,33,298,31.13l1.28,1.61c-10.12-8.86-25.71-10.82-37.64-5.33S241.89,45.23,241.3,58.17a24.85,24.85,0,0,0,3.08,14c2.87,4.72,7.7,8,12.6,10.76a44.2,44.2,0,0,0,14.11,5.48,31.34,31.34,0,0,0,23-5.63A42.18,42.18,0,0,0,308.21,64.24ZM285.46,80.86a27.75,27.75,0,0,1-18.35-.6,36,36,0,0,1-15-11,16.38,16.38,0,0,1-2.74-4.37,17,17,0,0,1-.64-7.67c.63-7,2.61-14.32,7.82-19.12l.25-.08c-3.31,7.21-6,15.49-3.08,23.07S264.9,73.75,273.18,75.2s16.67,0,24.78-1.74C294.08,76.35,290.11,79.29,285.46,80.86Z"/><path class="cls-1" d="M230.48,159.57c5.26-2,1.09-.18,5.21-3,3.66-2.52,8.52-3.4,11.08-7s2.51-9.44-1.19-11.9a8.35,8.35,0,0,0-7.85-.3,19.17,19.17,0,0,0-6.35,5.09,8.46,8.46,0,0,0-5.35-9.47c3.25,0,6.56,0,9.63-1.05s5.91-3.35,6.71-6.5a23.63,23.63,0,0,0,5.65,5.55,9.46,9.46,0,0,0,7.6,1.38c2.55-.77,4.62-3.28,4.36-5.93-.32-3.26-3.74-5.3-6.92-6.11a23.16,23.16,0,0,0-9.34-.42c.2-2.15,1.91-4.07,1.59-6.2-.29-2-2.23-3.26-4.14-3.73A12.82,12.82,0,0,0,231,112.24a29.34,29.34,0,0,0-7.21,7.92,25.57,25.57,0,0,0-.22-7.91,8.76,8.76,0,0,0-4.59-6.14A17.23,17.23,0,0,0,234.3,94.54c1.16-3.54,1-7.7-1.19-10.71s-6.75-4.34-9.88-2.31A13.13,13.13,0,0,0,210,69.34a3.52,3.52,0,0,0-1.87.5,3.22,3.22,0,0,0-1.06,2.66c0,3.21,2.18,6.1,4.87,7.86s5.86,2.58,9,3.37a16.61,16.61,0,0,0-6.3,18.93A9.46,9.46,0,0,0,210,98c-2.12-.78-4.9,0-5.81,2-1.73-6.23-8.1-10.29-14.5-11.23a12,12,0,0,0-7.33.85c-2.21,1.17-3.82,3.73-3.28,6.17.6,2.65,3.33,4.21,5.9,5.11a33.06,33.06,0,0,0,18.64.94c.39,1.68-.47,3.37-.65,5.08-.38,3.58,2.23,6.73,4.82,9.23,4.08,4,9.48,7.71,15,6.39a8.54,8.54,0,0,0-.52,9.37A7.31,7.31,0,0,0,212,134.44c-2-4.21-5-8.16-9.23-10.12s-9.8-1.45-12.88,2.05a11.69,11.69,0,0,0-2.6,7.75,6.76,6.76,0,0,0,.75,3.43c1.41,2.41,4.71,2.81,7.5,2.64a37.9,37.9,0,0,0,14.87-4.11,10,10,0,0,0,7.44,14.66c-2.07.43-3.2,3-2.58,5a6.49,6.49,0,0,0,4.6,4,18.81,18.81,0,0,0,6.31.33l2.51-.14Z"/><path class="cls-1" d="M166.74,97.3c-.28-34.82-24-46.42-47.05-50.29s-78.58,0-78.58,0V206.27h34.3s-16.84-14.35-17.15-67.7c0,0,19.05,65,66.8,67.38,27.6,1.36,38.17,0,38.17,0V154.36s-49.62,52.19-104.66-30.63c0,0,26.22,25.15,59.25,25.15C152.43,148.88,167,132.12,166.74,97.3Zm-108.17-29C69.25,91.42,103.14,96.39,122,89.7c11-3.9,25.69,2.11,25.69,9.84s-11.19,17.93-36.45,15C69.74,109.74,58.57,68.29,58.57,68.29Z"/><path class="cls-1" d="M171.07,329.15s-19.7-6.56-28.33-16.39c-15-17.13-10.84-25.87-9.94-50.61s-7.65-45.38-6.75-40.9,8,12.22,17.29,20.26,24.6,18.49,28.48,32.79-8,19.68-8,19.68c24.45,6,46.22-2.39,51-23,1.84-7.93-2.47-17.73-9.14-27.81l28.53-53.12s-5.67,34.13-4.85,56c.89,24,27.29,50.88-12.81,81.42,0,0,23.48-.5,37.93,1.08,25.67,2.81,48.58-4.7,51.86-3.21,0,0-43.84-71.26-13.9-163.94,0,0-15-3.23-27.26-2.93s-43,1-47.77-.21,6.26,4.49,1.79,14.92c-3.43,8-12.57,40-24.11,55.72-9-11.22-18.8-21.88-24-29.74A52.75,52.75,0,0,1,163,162.5a20.72,20.72,0,0,1-18.18,10.18c-15.35-.15-14.4.77-22.45,1.07s-15.41-7.65-14.51-.2-2.44,126.34-3.93,136.06c-3.21,20.85,12.87,21.63,12.87,21.63Z"/></svg>